Ookami Kodomo No Ame To Yuki
Contenedor: .MP4
SubtitulosÑ Español

Format : MPEG-4
Format profile : Base Media
Codec ID : isom
File size : 3.71 GiB
Duration : 1h 57mn
Overall bit rate : 4 531 Kbps

Video
Format : AVC
Format/Info : Advanced Video Codec
Format profile : High@L4.1
Format settings, CABAC : Yes
Format settings, ReFrames : 4 frames
Codec ID : avc1
Codec ID/Info : Advanced Video Coding
Duration : 1h 57mn
Bit rate mode : Variable
Bit rate : 4 117 Kbps
Maximum bit rate : 22.1 Mbps
Width : 1 920 pixels
Height : 1 080 pixels
Display aspect ratio : 16:9
Frame rate mode : Constant
Frame rate : 23.976 fps
Color space : YUV
Chroma subsampling : 4:2:0
Bit depth : 8 bits
Scan type : Progressive
Bits/(Pixel*Frame) : 0.083
Stream size : 3.37 GiB (91%)
Title : [KOF] Ookami Kodomo
Writing library : x264 core 129 r2245 bc13772

Audio
Format : AAC
Format/Info : Advanced Audio Codec
Format version : Version 4
Format profile : LC
Format settings, SBR : No
Codec ID : 40
Duration : 1h 57mn
Bit rate mode : Variable
Bit rate : 410 Kbps
Maximum bit rate : 475 Kbps
Channel(s) : 2 channels
Channel positions : Front: L R
Sampling rate : 48.0 KHz
Stream size : 343 MiB (9%)
Title : Audio Japonés 2.0
Language : Japanese